<svg xmlns="http://www.w3.org/2000/svg" version="1.0" viewBox="0 0 195 289"><g fill="white" stroke-width="0"><path d="M11.5 13.5c1.7 1.5 8 7.1 14 12.5 26.6 23.6 49.9 53.5 62.9 80.5 8.7 17.9 25.4 63.8 31.2 85.5.9 3.4 1.1 3.2 5.1-9 2.3-6.9 5.8-18.6 7.7-26 21.2-80.8 21.3-81.2 22.6-90 .5-3 1.2-6.4 1.6-7.5.5-1.3.4-1.7-.3-1-.6.5-8.8 18.6-18.3 40.2l-17.3 39.2-6-10.7c-8.1-14.7-20.7-33.7-30.1-45.7-14.4-18.3-52.5-54.2-72.1-67.9l-4-2.8 3 2.7z"/><path d="M64.2 132.3c-5.6 21.6-13.7 52.6-18 69-4.3 16.4-7.5 29.4-7.1 29 .8-.9 8.3-17.4 23.6-52.3 6.3-14.2 11.4-24.5 12.2-24.5.7 0 3.9 4.5 7.1 10.1 23.8 41.3 48.8 69.8 89.1 101.9 14.7 11.6 17.4 13.6 9.9 6.9-21.9-19.6-33.9-31.9-47.2-48.4-15.8-19.8-25.2-36.4-36.4-64.4-6.5-16.1-19.7-55.2-20.9-62-.4-2-1-3.8-1.4-4-.3-.2-5.2 17.2-10.9 38.7z"/></g></svg>